<?xml version="1.0" encoding="UTF-8"?>
<svg xmlns="http://www.w3.org/2000/svg" viewBox="0 0 1127 1127">
<style>
  svg { color: #171717; }
  @media (prefers-color-scheme: dark) {
    svg { color: #ffffff; }
  }
</style>
<g transform="translate(164.5,0)">
<path d="M0 0 C32.35738011 -0.85548283 63.67754209 9.28870146 92.51171875 23.12109375 C93.88408691 23.77150635 93.88408691 23.77150635 95.28417969 24.43505859 C114.58325363 33.62083478 130.77135283 43.68278233 145.44921875 59.30859375 C155.61872041 69.49466936 170.28651199 75.049402 183.13525391 81.0402832 C205.48010355 91.49294826 224.67792272 105.1416113 242.51171875 122.12109375 C243.1665625 122.7346875 243.82140625 123.34828125 244.49609375 123.98046875 C249.65450973 128.94958506 254.0640467 134.51951007 258.51171875 140.12109375 C259.30707031 141.09949219 260.10242188 142.07789063 260.921875 143.0859375 C314.34243297 210.22144062 328.53340301 303.83788006 330.51171875 387.12109375 C330.53508301 388.09836426 330.55844727 389.07563477 330.58251953 390.08251953 C332.23508625 472.16925799 314.26804052 582.13913153 254.51171875 650.12109375 C253.89941406 650.81460938 253.28710938 651.508125 252.65625 652.22265625 C245.97636405 659.42614372 237.07002757 665.39068421 227.1796875 666.4921875 C216.4789535 666.69635414 210.87302854 664.37159498 203.01171875 657.30859375 C191.50796523 645.14347461 179.51171875 621.06919526 179.51171875 604.12109375 C180.33671875 604.11174805 181.16171875 604.10240234 182.01171875 604.09277344 C212.80553947 604.09625294 212.80553947 604.09625294 239.51171875 590.12109375 C256.22813627 569.46927772 257.3971662 540.65725914 255.28466797 515.40722656 C252.44526572 491.07950849 241.99945609 462.86972051 222.51171875 447.12109375 C213.0836633 441.05378732 205.72390426 439.20291016 194.51171875 440.12109375 C183.23428934 442.88130374 174.74964845 450.40727335 168.6796875 460.0234375 C160.48858416 474.38614138 155.51580947 490.24917323 150.82421875 506.03515625 C150.59946869 506.78944916 150.37471863 507.54374207 150.14315796 508.32089233 C149.0315726 512.06401657 147.93886392 515.81131722 146.87353516 519.56787109 C146.47447101 520.9398331 146.07522847 522.31174323 145.67578125 523.68359375 C145.3298291 524.90175781 144.98387695 526.11992188 144.62744141 527.375 C144.25925293 528.28121094 143.89106445 529.18742188 143.51171875 530.12109375 C140.51171875 531.12109375 140.51171875 531.12109375 138.53125 530.1875 C121.64783812 518.6828742 114.94551821 503.5734016 111.125 483.89453125 C109.99382235 476.93454645 109.35384967 469.97637031 109.01171875 462.93359375 C108.97038818 462.11971191 108.92905762 461.30583008 108.88647461 460.46728516 C108.59920142 454.31298857 108.43205209 448.15907884 108.296875 442 C108.27825409 441.18386734 108.25963318 440.36773468 108.240448 439.52687073 C108.14719743 435.41881552 108.06222653 431.31090935 107.9921875 427.20239258 C107.70717733 412.81968367 106.77364322 398.43289054 103.26171875 384.43359375 C103.04555908 383.55622559 102.82939941 382.67885742 102.60668945 381.77490234 C91.61882634 338.88110515 60.78855035 312.60680225 24.09667969 290.67773438 C-1.6824225 275.64080846 -31.76508899 270.15204008 -61.01953125 277.81640625 C-62.51132422 278.24366099 -64.00092419 278.67864389 -65.48828125 279.12109375 C-66.24882812 279.34120117 -67.009375 279.56130859 -67.79296875 279.78808594 C-91.81380026 286.94046808 -113.95062866 299.55805758 -135.48828125 312.12109375 C-199.29480184 349.18093832 -258.34277044 372.47033095 -332.48828125 353.10961914 C-334.82825278 352.46771193 -337.15955024 351.80260097 -339.48828125 351.12109375 C-340.61339111 350.79286621 -340.61339111 350.79286621 -341.76123047 350.45800781 C-354.14724074 346.76125188 -365.8588447 341.7349786 -377.48828125 336.12109375 C-378.2349707 335.76144531 -378.98166016 335.40179688 -379.75097656 335.03125 C-395.35755559 327.40602213 -409.35268066 317.46266412 -422.48828125 306.12109375 C-423.36097656 305.37085938 -424.23367188 304.620625 -425.1328125 303.84765625 C-448.91244273 282.9558072 -464.83793375 254.27935047 -467.34326172 222.48095703 C-471.22925632 159.24522665 -445.97022074 96.18356321 -404.48828125 49.12109375 C-391.74355018 34.94658627 -372.94812709 21.19129012 -353.48828125 19.12109375 C-350.8152881 19.05292999 -348.1631487 19.07497535 -345.48828125 19.12109375 C-345.89710944 26.79014676 -346.31839873 34.01198678 -351.17578125 40.30859375 C-353.48828125 42.12109375 -353.48828125 42.12109375 -355.3828125 43.15234375 C-362.24329677 46.91988242 -364.02954377 51.21080801 -366.203125 58.52734375 C-367.28412876 62.76657418 -367.76459553 65.84443855 -366.48828125 70.12109375 C-353.79133593 89.6658298 -326.51931532 97.87362179 -305.12548828 102.6484375 C-295.65528023 104.63052645 -286.16049067 105.74773947 -276.48828125 106.12109375 C-275.55371094 106.16234375 -274.61914062 106.20359375 -273.65625 106.24609375 C-220.88299332 107.42703376 -175.23461838 80.74943645 -132.39794922 53.00488281 C-91.20503457 26.33559859 -50.10839162 2.43855595 0 0 Z " fill="currentColor" transform="translate(467.48828125,-0.12109375)"/>
<path d="M0 0 C6.43623604 0.80166641 10.25471553 4.87692503 15 9 C15.89912109 9.75410156 15.89912109 9.75410156 16.81640625 10.5234375 C65.30243812 54.68661834 79.45231445 154.51572996 83 217 C85.67433573 285.44513077 42.49437304 349.31200493 0 400 C-1.4587198 401.81218898 -2.91704346 403.6246969 -4.375 405.4375 C-8.48083531 410.46212363 -12.80588175 415.23454272 -17.2265625 419.98046875 C-19.18981622 422.09109809 -21.06765231 424.25632409 -22.93359375 426.453125 C-28.15784966 432.44694962 -33.85024111 437.99897605 -39.47875977 443.60913086 C-41.43295624 445.5579687 -43.38175147 447.51209272 -45.33007812 449.46679688 C-51.38246439 455.52266158 -57.43223632 461.4973859 -64 467 C-64.96421875 467.845625 -65.9284375 468.69125 -66.921875 469.5625 C-124.27457677 518.99355788 -193.86566518 553.19881862 -270.89453125 548.75390625 C-313.79799107 545.42419973 -359.08710466 524.91759379 -390 495 C-390.928125 494.18208984 -390.928125 494.18208984 -391.875 493.34765625 C-403.03995531 483.15465018 -409.45096067 468.16379965 -410.1875 453.1875 C-409.95843989 442.21343856 -405.86146076 433.39720477 -397.9375 425.75 C-386.97094062 416.64186763 -372.92994758 413.16082897 -359 412 C-359.83793136 416.61436176 -362.240723 420.58014926 -364.38476562 424.69140625 C-368.40543389 432.52873423 -370.02326219 439.19747946 -369 448 C-366.90784488 451.67930728 -365.98851981 452.6704934 -362 454 C-353.85851576 454.8307637 -346.9948293 451.66292998 -340.4375 447.0625 C-329.48933428 437.91006517 -324.33986857 425.19927194 -320 412 C-319.63777344 410.91074219 -319.27554688 409.82148437 -318.90234375 408.69921875 C-312.79119523 386.78435593 -318.34280872 365.39829248 -329 346 C-334.35903395 336.75616449 -340.37292205 327.91826533 -346.32714844 319.05249023 C-376.53445769 274.06558631 -393.54008567 226.56429822 -395 172 C-395.02191406 171.32501465 -395.04382813 170.6500293 -395.06640625 169.95458984 C-397.1394999 99.00295956 -397.1394999 99.00295956 -381 80 C-372.95866633 71.61403775 -361.11574415 70.98770541 -350.12084961 69.82202148 C-333.22830901 68.02809313 -316.87935559 64.53761195 -300.36328125 60.61694336 C-291.03082588 58.42155742 -281.74903808 56.51827959 -272.24609375 55.21484375 C-271.3642894 55.09382797 -270.48248505 54.97281219 -269.57395935 54.84812927 C-245.27526024 51.73700537 -221.96276032 54.81512179 -202 70 C-170.72782862 95.39990074 -145.6252208 142.72582849 -140.3984375 182.453125 C-138.31959287 202.98287059 -140.69082903 223.59822879 -143 244 C-122.13088041 242.30911185 -102.33413859 237.92863599 -86 224 C-85.44699219 223.58878906 -84.89398438 223.17757812 -84.32421875 222.75390625 C-52.17432478 197.8469769 -45.27626851 146.087232 -37.83906555 109.0506134 C-21.20736013 26.23728016 -21.20736013 26.23728016 -3.515625 4.83984375 C-1.83829389 2.86674768 -1.83829389 2.86674768 0 0 Z M-330 107 C-330.31638428 107.95869995 -330.31638428 107.95869995 -330.63916016 108.93676758 C-343.41235239 147.37070005 -343.41235239 147.37070005 -362 158 C-364.43721503 159.10731234 -366.86626095 160.17614345 -369.3359375 161.203125 C-369.97942139 161.47463379 -370.62290527 161.74614258 -371.28588867 162.02587891 C-372.85570387 162.68762087 -374.42763636 163.34433639 -376 164 C-375.54113403 165.41418213 -375.54113403 165.41418213 -375.07299805 166.85693359 C-367.70424676 189.56770832 -360.34582184 212.28179829 -353 235 C-348.35219887 235 -347.99449319 234.54029431 -344.75 231.5 C-343.87730469 230.68789063 -343.00460937 229.87578125 -342.10546875 229.0390625 C-339.75048846 226.76416243 -337.45889037 224.43282693 -335.17578125 222.0859375 C-321.7277556 208.28465317 -308.62136996 198.11329393 -288.60205078 197.70703125 C-264.11539152 197.53934312 -247.78554373 205.89690475 -227.13623047 218.20727539 C-211.16517617 227.69726203 -193.77089045 236.98792355 -175 239 C-173.78870226 216.52369747 -179.82242906 194.56217343 -194.625 177.3125 C-215.97844419 154.928422 -246.88825523 150.03810336 -275.89257812 144.44189453 C-294.87813624 140.77569312 -306.90894911 132.79178508 -318.98242188 117.69311523 C-322.27515962 113.62683547 -325.93957298 110.29361313 -330 107 Z " fill="currentColor" transform="translate(594,578)"/>
<path d="M0 0 C6.01827552 5.23221504 11.24736774 10.76030014 15.18359375 17.74609375 C15.18359375 18.40609375 15.18359375 19.06609375 15.18359375 19.74609375 C9.32756642 22.30494507 3.63370275 22.00637025 -2.62890625 21.93359375 C-4.1922168 21.93262695 -4.1922168 21.93262695 -5.78710938 21.93164062 C-11.10382479 21.90160268 -16.27546383 21.64096749 -21.54858398 20.98413086 C-46.7102803 18.34308727 -65.42284686 25.68777011 -87.57421875 36.56640625 C-105.56356818 45.37821972 -124.51139387 53.60652673 -144.81640625 54.74609375 C-145.739375 54.79894531 -146.66234375 54.85179687 -147.61328125 54.90625 C-158.1579022 55.22040321 -168.45384199 53.57227993 -176.81640625 46.74609375 C-182.60297224 41.08811812 -184.78866627 35.36417555 -184.99609375 27.38671875 C-185.03260332 23.16964373 -184.94706501 18.96104852 -184.81640625 14.74609375 C-179.26476056 16.47852219 -174.10749963 18.45357224 -168.95703125 21.171875 C-165.94780578 21.97909424 -164.54495276 21.1594723 -161.81640625 19.74609375 C-160.39191661 18.78735502 -158.99746512 17.7831074 -157.62890625 16.74609375 C-136.55150916 1.81884625 -111.90830251 -7.61945504 -86.81640625 -13.25390625 C-86.03700684 -13.43034668 -85.25760742 -13.60678711 -84.45458984 -13.78857422 C-56.25460607 -19.87494505 -23.33096786 -18.67124612 0 0 Z " fill="currentColor" transform="translate(469.81640625,424.25390625)"/>
<path d="M0 0 C0.58652344 0.56203125 1.17304688 1.1240625 1.77734375 1.703125 C2.74671875 2.486875 3.71609375 3.270625 4.71484375 4.078125 C8.99689359 3.47863802 12.06638188 1.30774059 15.71484375 -0.921875 C16.37484375 -0.921875 17.03484375 -0.921875 17.71484375 -0.921875 C23.70611229 15.12616572 23.70611229 15.12616572 19.83984375 23.890625 C16.509103 30.00172768 12.07846507 35.63398162 6.71484375 40.078125 C3.70703125 40.875 3.70703125 40.875 0.71484375 41.078125 C-0.09855469 41.13355469 -0.91195312 41.18898438 -1.75 41.24609375 C-15.83111323 41.35731897 -28.22299914 38.90608743 -40.91015625 32.890625 C-55.62613655 26.37317854 -72.02797907 33.38008406 -86.27734375 38.359375 C-91.23459989 40.09079121 -96.24422849 41.61059818 -101.28515625 43.078125 C-100.57067463 25.58825824 -93.00444976 9.60217825 -80.390625 -2.4375 C-57.80475657 -20.50619474 -21.9755546 -18.48200489 0 0 Z " fill="currentColor" transform="translate(233.28515625,450.921875)"/>
</g>
</svg>
